<?xml version="1.0" encoding="UTF-8"?>
<svg id="Layer_2" data-name="Layer 2" xmlns="http://www.w3.org/2000/svg" viewBox="0 0 631.39 96.56">
  <g>
    <path d="M120.31,3.75h24.1l-25.55,86.97h-34.54l-10.06-68.71-10.44,68.71H29.04L4.39,3.75h24.85l18.43,67.21L58.24,3.75h32.68l10.19,67.09L120.31,3.75Z"/>
    <path d="M192.57,90.71l-5.09-17.77h-31.81l-5.09,17.77h-22.99L153.93,3.75h36.03l26.34,86.97h-23.73ZM160.64,55.31h21.87l-10.93-38.52-10.93,38.52Z"/>
    <path d="M303.66,90.71h-27.83l-25.07-35.63h-7.86l.1,35.63h-23.36V3.75h23.36v34.17h7.37l22.99-34.17h27.33l-31.68,41.87,34.66,45.1Z"/>
    <path d="M306.99,90.71V3.75h74.55v18.26h-51.19v15.9h41v17.15h-41v17.39h52.93v18.26h-76.28Z"/>
  </g>
  <path d="M383.81,47.22c0-13.83,3.75-24.79,11.25-32.87,7.5-8.08,17.83-12.12,31-12.12,11.18,0,20.17,2.73,26.97,8.2,6.79,5.47,10.94,12.97,12.43,22.49l-22.37,1.86c-.91-4.14-2.88-7.43-5.9-9.88-3.02-2.44-6.73-3.67-11.12-3.67s-7.93,1.26-10.87,3.79c-2.94,2.53-5.01,5.68-6.21,9.44-1.2,3.77-1.8,8.02-1.8,12.74,0,7.95,1.82,14.27,5.47,18.95,3.64,4.68,8.53,7.02,14.66,7.02,4.64,0,8.43-1.37,11.37-4.1,2.94-2.73,4.87-6.25,5.78-10.56l22.49,1.37c-1.41,10.44-5.47,18.43-12.18,23.98-6.71,5.55-15.87,8.33-27.46,8.33-13.67,0-24.34-4.02-32-12.05-7.66-8.03-11.49-19.01-11.49-32.93Z"/>
  <path d="M528.21,90.71l-5.09-17.77h-31.81l-5.1,17.77h-22.99L489.56,3.73h36.04l26.34,86.99h-23.74ZM496.28,55.3h21.87l-10.94-38.52-10.94,38.52Z"/>
  <path d="M555.97,90.71V3.73h40.64c4.55,0,8.76.52,12.61,1.55,3.85,1.04,7.39,2.63,10.62,4.78,3.23,2.16,5.78,5.16,7.64,9.01,1.86,3.85,2.8,8.35,2.8,13.48,0,18.39-10.98,27.59-32.93,27.59h-18.02v30.57h-23.36ZM579.33,42.25h14.42c8.78,0,13.17-3.23,13.17-9.69s-4.39-9.69-13.17-9.69h-14.42v19.39Z"/>
</svg>