<svg width="117" height="22" viewBox="0 0 117 22" fill="none" xmlns="http://www.w3.org/2000/svg">
<rect width="117" height="22" fill="white"/>
<path d="M28 17.208V15.0192H29.7359V6.18875H28V4H34.7927C35.5977 4 36.2959 4.13837 36.8871 4.41511C37.4909 4.67927 37.9563 5.06293 38.2834 5.56609C38.623 6.05667 38.7928 6.64789 38.7928 7.33973V7.52842C38.7928 8.13221 38.6796 8.62908 38.4532 9.01904C38.2268 9.39641 37.9563 9.69201 37.6418 9.90586C37.3399 10.1071 37.0506 10.2518 36.7739 10.3398V10.6795C37.0506 10.7549 37.3525 10.8996 37.6796 11.1134C38.0066 11.3147 38.2834 11.6103 38.5098 12.0003C38.7488 12.3902 38.8683 12.8997 38.8683 13.5286V13.7173C38.8683 14.4469 38.6985 15.0758 38.3588 15.6042C38.0192 16.1199 37.5475 16.5161 36.9437 16.7929C36.3525 17.0696 35.6606 17.208 34.8682 17.208H28ZM32.2266 14.9438H34.5663C35.1072 14.9438 35.5411 14.8117 35.8682 14.5475C36.2078 14.2834 36.3776 13.906 36.3776 13.4154V13.2267C36.3776 12.7361 36.2141 12.3588 35.8871 12.0946C35.56 11.8304 35.1197 11.6984 34.5663 11.6984H32.2266V14.9438ZM32.2266 9.43414H34.5285C35.0443 9.43414 35.4657 9.30206 35.7927 9.0379C36.1323 8.77374 36.3022 8.40895 36.3022 7.94353V7.75484C36.3022 7.27684 36.1386 6.91205 35.8116 6.66047C35.4845 6.39631 35.0568 6.26423 34.5285 6.26423H32.2266V9.43414Z" fill="black"/>
<path d="M40.228 17.208V4H42.6054V17.208H40.228Z" fill="black"/>
<path d="M48.9382 17.4721C48.0073 17.4721 47.1708 17.2835 46.4287 16.9061C45.6865 16.5287 45.1016 15.9815 44.6739 15.2645C44.2462 14.5475 44.0324 13.6859 44.0324 12.6795V12.3776C44.0324 11.3713 44.2462 10.5097 44.6739 9.79265C45.1016 9.07564 45.6865 8.52845 46.4287 8.15108C47.1708 7.77371 48.0073 7.58502 48.9382 7.58502C49.869 7.58502 50.7055 7.77371 51.4477 8.15108C52.1899 8.52845 52.7748 9.07564 53.2025 9.79265C53.6302 10.5097 53.844 11.3713 53.844 12.3776V12.6795C53.844 13.6859 53.6302 14.5475 53.2025 15.2645C52.7748 15.9815 52.1899 16.5287 51.4477 16.9061C50.7055 17.2835 49.869 17.4721 48.9382 17.4721ZM48.9382 15.3589C49.6678 15.3589 50.2716 15.1262 50.7496 14.6607C51.2276 14.1827 51.4666 13.5035 51.4666 12.6229V12.4342C51.4666 11.5537 51.2276 10.8807 50.7496 10.4153C50.2842 9.9373 49.6804 9.6983 48.9382 9.6983C48.2086 9.6983 47.6048 9.9373 47.1268 10.4153C46.6488 10.8807 46.4098 11.5537 46.4098 12.4342V12.6229C46.4098 13.5035 46.6488 14.1827 47.1268 14.6607C47.6048 15.1262 48.2086 15.3589 48.9382 15.3589Z" fill="black"/>
<path d="M59.6801 17.4721C58.7745 17.4721 57.9505 17.2835 57.2084 16.9061C56.4788 16.5287 55.9001 15.9815 55.4725 15.2645C55.0448 14.5475 54.8309 13.6796 54.8309 12.6607V12.3965C54.8309 11.3776 55.0448 10.5097 55.4725 9.79265C55.9001 9.07564 56.4788 8.52845 57.2084 8.15108C57.9505 7.77371 58.7745 7.58502 59.6801 7.58502C60.5733 7.58502 61.3406 7.74226 61.9821 8.05674C62.6236 8.37121 63.1394 8.80519 63.5293 9.35867C63.9319 9.89957 64.196 10.5159 64.3218 11.2078L62.0198 11.6984C61.9695 11.321 61.8563 10.9814 61.6802 10.6795C61.5041 10.3776 61.2525 10.1386 60.9255 9.96246C60.611 9.78636 60.2148 9.6983 59.7368 9.6983C59.2587 9.6983 58.8248 9.80522 58.4348 10.0191C58.0575 10.2203 57.7556 10.5285 57.5291 10.9436C57.3153 11.3462 57.2084 11.843 57.2084 12.4342V12.6229C57.2084 13.2141 57.3153 13.7173 57.5291 14.1324C57.7556 14.5349 58.0575 14.8431 58.4348 15.057C58.8248 15.2582 59.2587 15.3589 59.7368 15.3589C60.4538 15.3589 60.9947 15.1765 61.3594 14.8117C61.7368 14.4343 61.9758 13.9437 62.0765 13.3399L64.3784 13.8871C64.2149 14.5538 63.9319 15.1639 63.5293 15.7174C63.1394 16.2583 62.6236 16.686 61.9821 17.0004C61.3406 17.3149 60.5733 17.4721 59.6801 17.4721Z" fill="black"/>
<path d="M65.5848 17.208V4H67.9623V11.3021H68.3019L71.3963 7.84918H74.4908L70.1699 12.3776L74.6417 17.208H71.585L68.3019 13.4909H67.9623V17.208H65.5848Z" fill="black"/>
<path d="M76.2352 17.208L74.9144 7.84918H77.273L78.1032 15.6042H78.4429L79.6504 7.84918H83.4619L84.6695 15.6042H85.0091L85.8393 7.84918H88.1979L86.8771 17.208H82.9336L81.726 9.45301H81.3864L80.1788 17.208H76.2352Z" fill="black"/>
<path d="M93.9382 17.4721C93.0074 17.4721 92.1709 17.2835 91.4287 16.9061C90.6865 16.5287 90.1016 15.9815 89.6739 15.2645C89.2462 14.5475 89.0324 13.6859 89.0324 12.6795V12.3776C89.0324 11.3713 89.2462 10.5097 89.6739 9.79265C90.1016 9.07564 90.6865 8.52845 91.4287 8.15108C92.1709 7.77371 93.0074 7.58502 93.9382 7.58502C94.8691 7.58502 95.7056 7.77371 96.4477 8.15108C97.1899 8.52845 97.7748 9.07564 98.2025 9.79265C98.6302 10.5097 98.844 11.3713 98.844 12.3776V12.6795C98.844 13.6859 98.6302 14.5475 98.2025 15.2645C97.7748 15.9815 97.1899 16.5287 96.4477 16.9061C95.7056 17.2835 94.8691 17.4721 93.9382 17.4721ZM93.9382 15.3589C94.6678 15.3589 95.2716 15.1262 95.7496 14.6607C96.2276 14.1827 96.4666 13.5035 96.4666 12.6229V12.4342C96.4666 11.5537 96.2276 10.8807 95.7496 10.4153C95.2842 9.9373 94.6804 9.6983 93.9382 9.6983C93.2086 9.6983 92.6048 9.9373 92.1268 10.4153C91.6488 10.8807 91.4098 11.5537 91.4098 12.4342V12.6229C91.4098 13.5035 91.6488 14.1827 92.1268 14.6607C92.6048 15.1262 93.2086 15.3589 93.9382 15.3589Z" fill="black"/>
<path d="M100.284 17.208V7.84918H102.623V8.90582H102.963C103.101 8.52845 103.328 8.25171 103.642 8.07561C103.969 7.8995 104.347 7.81145 104.775 7.81145H105.907V9.92473H104.737C104.133 9.92473 103.636 10.0883 103.246 10.4153C102.856 10.7298 102.661 11.2204 102.661 11.8871V17.208H100.284Z" fill="black"/>
<path d="M107.01 17.208V4H109.388V11.3021H109.727L112.822 7.84918H115.916L111.595 12.3776L116.067 17.208H113.01L109.727 13.4909H109.388V17.208H107.01Z" fill="black"/>
<path d="M22.623 3.06348L22.6113 3.06934L22.6143 3.07129L17.1592 18.7568L17.1602 18.7793L17.1504 18.7842L17.1494 18.7881L17.1465 18.7861L11.5713 22V21.9883L0.999023 9.35645L1.01562 9.3418V2.98828L1.02148 2.99121L1.01953 2.97949L17.2451 0.0107422L17.2656 0L22.623 3.06348ZM11.5713 21.4336V15.5117L6.56934 12.624V12.6338L1.88281 9.85742L11.5713 21.4336ZM17.125 6.29395L17.1289 6.29688V12.5088L17.125 12.5107L17.1533 17.6904L22.1416 3.3457L17.125 6.29395ZM6.77734 12.333L11.749 15.2041L16.6846 12.3525L11.7129 9.4834L6.77734 12.333ZM11.8906 9.1748L16.7725 11.9932V6.50195L11.8906 3.68262V9.1748ZM6.72559 6.50195V11.9521L11.5352 9.1748V3.72461L6.72559 6.50195ZM1.48047 3.25684L6.5498 6.19141L11.6982 3.21875L11.6943 3.2168L16.3271 0.541016L1.48047 3.25684Z" fill="black"/>
</svg>
